<mxfile host="65bd71144e">
    <diagram id="okwCU-JQ0s3KkW8srF_I" name="Page-1">
        <mxGraphModel dx="1987" dy="299" grid="1" gridSize="10" guides="1" tooltips="1" connect="1" arrows="1" fold="1" page="1" pageScale="1" pageWidth="850" pageHeight="1100" math="0" shadow="0">
            <root>
                <mxCell id="0"/>
                <mxCell id="1" parent="0"/>
                <mxCell id="4" value="" style="edgeStyle=none;html=1;" edge="1" parent="1" source="2" target="3">
                    <mxGeometry relative="1" as="geometry"/>
                </mxCell>
                <mxCell id="2" value="password" style="text;html=1;align=center;verticalAlign=middle;resizable=0;points=[];autosize=1;strokeColor=none;fillColor=none;" vertex="1" parent="1">
                    <mxGeometry x="35" y="98" width="70" height="30" as="geometry"/>
                </mxCell>
                <mxCell id="3" value="hashPassword" style="text;html=1;align=center;verticalAlign=middle;resizable=0;points=[];autosize=1;strokeColor=none;fillColor=none;" vertex="1" parent="1">
                    <mxGeometry x="410" y="98" width="100" height="30" as="geometry"/>
                </mxCell>
                <mxCell id="5" value="hashing algorithm" style="text;html=1;align=center;verticalAlign=middle;resizable=0;points=[];autosize=1;strokeColor=none;fillColor=none;" vertex="1" parent="1">
                    <mxGeometry x="180" y="78" width="120" height="30" as="geometry"/>
                </mxCell>
                <mxCell id="6" value="user3" style="text;html=1;align=center;verticalAlign=middle;resizable=0;points=[];autosize=1;strokeColor=none;fillColor=none;" vertex="1" parent="1">
                    <mxGeometry x="35" y="138" width="50" height="30" as="geometry"/>
                </mxCell>
                <mxCell id="7" value="5860faf02b6bc6222ba5aca523560f0e364ccd8b67bee486fe8bf7c01d492ccb" style="text;html=1;align=center;verticalAlign=middle;resizable=0;points=[];autosize=1;strokeColor=none;fillColor=none;" vertex="1" parent="1">
                    <mxGeometry x="410" y="138" width="430" height="30" as="geometry"/>
                </mxCell>
                <mxCell id="9" style="edgeStyle=none;html=1;" edge="1" parent="1" source="8">
                    <mxGeometry relative="1" as="geometry">
                        <mxPoint x="410" y="253" as="targetPoint"/>
                    </mxGeometry>
                </mxCell>
                <mxCell id="8" value="original Object" style="text;html=1;align=center;verticalAlign=middle;resizable=0;points=[];autosize=1;strokeColor=none;fillColor=none;" vertex="1" parent="1">
                    <mxGeometry x="30" y="238" width="100" height="30" as="geometry"/>
                </mxCell>
                <mxCell id="10" value="encrypt&amp;nbsp;" style="text;html=1;align=center;verticalAlign=middle;resizable=0;points=[];autosize=1;strokeColor=none;fillColor=none;" vertex="1" parent="1">
                    <mxGeometry x="420" y="238" width="70" height="30" as="geometry"/>
                </mxCell>
                <mxCell id="11" value="encryption algorithm (key)" style="text;html=1;align=center;verticalAlign=middle;resizable=0;points=[];autosize=1;strokeColor=none;fillColor=none;" vertex="1" parent="1">
                    <mxGeometry x="180" y="218" width="160" height="30" as="geometry"/>
                </mxCell>
                <mxCell id="12" value="" style="endArrow=classic;html=1;entryX=0.984;entryY=1.04;entryDx=0;entryDy=0;entryPerimeter=0;" edge="1" parent="1" target="8">
                    <mxGeometry width="50" height="50" relative="1" as="geometry">
                        <mxPoint x="410" y="269" as="sourcePoint"/>
                        <mxPoint x="400" y="220" as="targetPoint"/>
                    </mxGeometry>
                </mxCell>
                <mxCell id="13" value="decryption algo (key)" style="text;html=1;align=center;verticalAlign=middle;resizable=0;points=[];autosize=1;strokeColor=none;fillColor=none;" vertex="1" parent="1">
                    <mxGeometry x="195" y="278" width="130" height="30" as="geometry"/>
                </mxCell>
                <mxCell id="14" value="&lt;span style=&quot;color: rgb(0, 0, 0);&quot;&gt;jwt.sign(payloadObject, key)&lt;/span&gt;" style="text;html=1;align=center;verticalAlign=middle;resizable=0;points=[];autosize=1;strokeColor=none;fillColor=none;" vertex="1" parent="1">
                    <mxGeometry x="155" y="198" width="170" height="30" as="geometry"/>
                </mxCell>
                <UserObject label="&lt;span style=&quot;color: rgb(0, 0, 0); font-family: Helvetica; font-size: 12px; font-style: normal; font-variant-ligatures: normal; font-variant-caps: normal; font-weight: 400; letter-spacing: normal; orphans: 2; text-align: center; text-indent: 0px; text-transform: none; widows: 2; word-spacing: 0px; -webkit-text-stroke-width: 0px; white-space: nowrap; background-color: rgb(251, 251, 251); text-decoration-thickness: initial; text-decoration-style: initial; text-decoration-color: initial; float: none; display: inline !important;&quot;&gt;jwt.verify(token, key)&lt;/span&gt;" link="&lt;span style=&quot;color: rgb(0, 0, 0); font-family: Helvetica; font-size: 12px; font-style: normal; font-variant-ligatures: normal; font-variant-caps: normal; font-weight: 400; letter-spacing: normal; orphans: 2; text-align: center; text-indent: 0px; text-transform: none; widows: 2; word-spacing: 0px; -webkit-text-stroke-width: 0px; white-space: nowrap; background-color: rgb(251, 251, 251); text-decoration-thickness: initial; text-decoration-style: initial; text-decoration-color: initial; display: inline !important; float: none;&quot;&gt;jwt.sign(payloadObject, key)&lt;/span&gt;" id="15">
                    <mxCell style="text;whiteSpace=wrap;html=1;" vertex="1" parent="1">
                        <mxGeometry x="160" y="308" width="180" height="40" as="geometry"/>
                    </mxCell>
                </UserObject>
                <mxCell id="16" value="&lt;div style=&quot;color: #ffffff;background-color: #193549;font-family: Consolas, &#39;Courier New&#39;, monospace;font-weight: normal;font-size: 18px;line-height: 24px;white-space: pre;&quot;&gt;&lt;div&gt;&lt;span style=&quot;color: #ffc600;&quot;&gt;const&lt;/span&gt;&lt;span style=&quot;color: #9effff;&quot;&gt; &lt;/span&gt;&lt;span style=&quot;color: #ffffff;&quot;&gt;payload&lt;/span&gt;&lt;span style=&quot;color: #9effff;&quot;&gt; &lt;/span&gt;&lt;span style=&quot;color: #ff9d00;&quot;&gt;=&lt;/span&gt;&lt;span style=&quot;color: #9effff;&quot;&gt; &lt;/span&gt;&lt;span style=&quot;color: #e1efff;&quot;&gt;{&lt;/span&gt;&lt;/div&gt;&lt;div&gt;&lt;span style=&quot;color: #9effff;&quot;&gt;&amp;nbsp; &amp;nbsp; &amp;nbsp; &lt;/span&gt;&lt;span style=&quot;color: #9effff;&quot;&gt;userId&lt;/span&gt;&lt;span style=&quot;color: #e1efff;&quot;&gt;:&lt;/span&gt;&lt;span style=&quot;color: #9effff;&quot;&gt; &lt;/span&gt;&lt;span style=&quot;color: #ffffff;&quot;&gt;user&lt;/span&gt;&lt;span style=&quot;color: #e1efff;&quot;&gt;.user_id,&lt;/span&gt;&lt;/div&gt;&lt;div&gt;&lt;span style=&quot;color: #9effff;&quot;&gt;&amp;nbsp; &amp;nbsp; &amp;nbsp; &lt;/span&gt;&lt;span style=&quot;color: #9effff;&quot;&gt;role&lt;/span&gt;&lt;span style=&quot;color: #e1efff;&quot;&gt;:&lt;/span&gt;&lt;span style=&quot;color: #9effff;&quot;&gt; &lt;/span&gt;&lt;span style=&quot;color: #ffffff;&quot;&gt;user&lt;/span&gt;&lt;span style=&quot;color: #e1efff;&quot;&gt;.role,&lt;/span&gt;&lt;/div&gt;&lt;div&gt;&lt;span style=&quot;color: #9effff;&quot;&gt;&amp;nbsp; &amp;nbsp; &lt;/span&gt;&lt;span style=&quot;color: #e1efff;&quot;&gt;};&lt;/span&gt;&lt;/div&gt;&lt;/div&gt;" style="text;whiteSpace=wrap;html=1;" vertex="1" parent="1">
                    <mxGeometry x="-195" y="260" width="300" height="120" as="geometry"/>
                </mxCell>
                <mxCell id="17" value="&lt;div style=&quot;color: rgb(191, 189, 182); background-color: rgb(13, 16, 22); font-family: IBMPlexMono, &amp;quot;Courier New&amp;quot;, monospace, Consolas, &amp;quot;Courier New&amp;quot;, monospace; line-height: 18px; white-space-collapse: preserve;&quot;&gt;&lt;span style=&quot;color: #aad94c;&quot;&gt;eyJhbGciOiJIUzI1NiIsInR5cCI6IkpXVCJ9.eyJ1c2VySWQiOjQsInJvbGUiOiJ1c2VyIiwiaWF0IjoxNzU2OTU3ODYyfQ.44dXOgx9EsciCdcUrAF7yHRN5DbWrPbMfhYqVdAJMj0&lt;/span&gt;&lt;/div&gt;" style="text;html=1;align=center;verticalAlign=middle;resizable=0;points=[];autosize=1;strokeColor=none;fillColor=none;" vertex="1" parent="1">
                    <mxGeometry x="380" y="278" width="1020" height="30" as="geometry"/>
                </mxCell>
                <mxCell id="18" value="client" style="shape=umlLifeline;perimeter=lifelinePerimeter;whiteSpace=wrap;html=1;container=1;dropTarget=0;collapsible=0;recursiveResize=0;outlineConnect=0;portConstraint=eastwest;newEdgeStyle={&quot;edgeStyle&quot;:&quot;elbowEdgeStyle&quot;,&quot;elbow&quot;:&quot;vertical&quot;,&quot;curved&quot;:0,&quot;rounded&quot;:0};" vertex="1" parent="1">
                    <mxGeometry y="440" width="100" height="870" as="geometry"/>
                </mxCell>
                <mxCell id="19" value="server" style="shape=umlLifeline;perimeter=lifelinePerimeter;whiteSpace=wrap;html=1;container=1;dropTarget=0;collapsible=0;recursiveResize=0;outlineConnect=0;portConstraint=eastwest;newEdgeStyle={&quot;edgeStyle&quot;:&quot;elbowEdgeStyle&quot;,&quot;elbow&quot;:&quot;vertical&quot;,&quot;curved&quot;:0,&quot;rounded&quot;:0};" vertex="1" parent="1">
                    <mxGeometry x="540" y="440" width="100" height="890" as="geometry"/>
                </mxCell>
                <mxCell id="20" value="" style="edgeStyle=elbowEdgeStyle;fontSize=12;html=1;endArrow=blockThin;endFill=1;" edge="1" parent="1">
                    <mxGeometry width="160" relative="1" as="geometry">
                        <mxPoint x="50" y="550" as="sourcePoint"/>
                        <mxPoint x="589.5" y="550" as="targetPoint"/>
                        <Array as="points">
                            <mxPoint x="210" y="550"/>
                            <mxPoint x="590" y="550"/>
                        </Array>
                    </mxGeometry>
                </mxCell>
                <mxCell id="22" value="POST: /user/register" style="text;html=1;align=center;verticalAlign=middle;resizable=0;points=[];autosize=1;strokeColor=none;fillColor=none;" vertex="1" parent="1">
                    <mxGeometry x="-80" y="535" width="130" height="30" as="geometry"/>
                </mxCell>
                <mxCell id="23" value="request.body { email, password, first_name, last_name }" style="text;html=1;align=center;verticalAlign=middle;resizable=0;points=[];autosize=1;strokeColor=none;fillColor=none;" vertex="1" parent="1">
                    <mxGeometry x="130" y="510" width="320" height="30" as="geometry"/>
                </mxCell>
                <mxCell id="24" value="" style="edgeStyle=elbowEdgeStyle;fontSize=12;html=1;endArrow=blockThin;endFill=1;" edge="1" parent="1">
                    <mxGeometry width="160" relative="1" as="geometry">
                        <mxPoint x="589.5" y="564" as="sourcePoint"/>
                        <mxPoint x="50" y="564" as="targetPoint"/>
                        <Array as="points">
                            <mxPoint x="590" y="564"/>
                            <mxPoint x="210" y="564"/>
                        </Array>
                    </mxGeometry>
                </mxCell>
                <mxCell id="25" value="response.data&amp;nbsp; { &quot;resigtration successful&quot;}" style="text;html=1;align=center;verticalAlign=middle;resizable=0;points=[];autosize=1;strokeColor=none;fillColor=none;" vertex="1" parent="1">
                    <mxGeometry x="180" y="570" width="240" height="30" as="geometry"/>
                </mxCell>
                <mxCell id="31" value="" style="edgeStyle=elbowEdgeStyle;fontSize=12;html=1;endArrow=blockThin;endFill=1;" edge="1" parent="1">
                    <mxGeometry width="160" relative="1" as="geometry">
                        <mxPoint x="50" y="690" as="sourcePoint"/>
                        <mxPoint x="589.5" y="690" as="targetPoint"/>
                        <Array as="points">
                            <mxPoint x="210" y="690"/>
                            <mxPoint x="590" y="690"/>
                        </Array>
                    </mxGeometry>
                </mxCell>
                <mxCell id="32" value="POST /user/login" style="text;html=1;align=center;verticalAlign=middle;resizable=0;points=[];autosize=1;strokeColor=none;fillColor=none;" vertex="1" parent="1">
                    <mxGeometry x="-70" y="675" width="110" height="30" as="geometry"/>
                </mxCell>
                <mxCell id="33" value="request.body { email, password}" style="text;html=1;align=center;verticalAlign=middle;resizable=0;points=[];autosize=1;strokeColor=none;fillColor=none;" vertex="1" parent="1">
                    <mxGeometry x="195" y="650" width="190" height="30" as="geometry"/>
                </mxCell>
                <mxCell id="34" value="" style="edgeStyle=elbowEdgeStyle;fontSize=12;html=1;endArrow=blockThin;endFill=1;" edge="1" parent="1">
                    <mxGeometry width="160" relative="1" as="geometry">
                        <mxPoint x="589.5" y="704" as="sourcePoint"/>
                        <mxPoint x="50" y="704" as="targetPoint"/>
                        <Array as="points">
                            <mxPoint x="590" y="704"/>
                            <mxPoint x="210" y="704"/>
                        </Array>
                    </mxGeometry>
                </mxCell>
                <mxCell id="35" value="response.data&amp;nbsp; { &quot;login successful&quot;, token}" style="text;html=1;align=center;verticalAlign=middle;resizable=0;points=[];autosize=1;strokeColor=none;fillColor=none;" vertex="1" parent="1">
                    <mxGeometry x="175" y="710" width="250" height="30" as="geometry"/>
                </mxCell>
                <mxCell id="36" value="" style="edgeStyle=elbowEdgeStyle;fontSize=12;html=1;endArrow=blockThin;endFill=1;" edge="1" parent="1">
                    <mxGeometry width="160" relative="1" as="geometry">
                        <mxPoint x="50" y="900" as="sourcePoint"/>
                        <mxPoint x="589.5" y="900" as="targetPoint"/>
                        <Array as="points">
                            <mxPoint x="210" y="900"/>
                            <mxPoint x="590" y="900"/>
                        </Array>
                    </mxGeometry>
                </mxCell>
                <mxCell id="37" value="GET /book/all" style="text;html=1;align=center;verticalAlign=middle;resizable=0;points=[];autosize=1;strokeColor=none;fillColor=none;" vertex="1" parent="1">
                    <mxGeometry x="-65" y="885" width="100" height="30" as="geometry"/>
                </mxCell>
                <mxCell id="38" value="&lt;span style=&quot;color: rgb(0, 0, 0);&quot;&gt;request.headers { aurhorization: Bearer token }&lt;/span&gt;" style="text;html=1;align=center;verticalAlign=middle;resizable=0;points=[];autosize=1;strokeColor=none;fillColor=none;" vertex="1" parent="1">
                    <mxGeometry x="175" y="870" width="270" height="30" as="geometry"/>
                </mxCell>
                <mxCell id="39" value="" style="edgeStyle=elbowEdgeStyle;fontSize=12;html=1;endArrow=blockThin;endFill=1;" edge="1" parent="1">
                    <mxGeometry width="160" relative="1" as="geometry">
                        <mxPoint x="589.5" y="914" as="sourcePoint"/>
                        <mxPoint x="50" y="914" as="targetPoint"/>
                        <Array as="points">
                            <mxPoint x="590" y="914"/>
                            <mxPoint x="210" y="914"/>
                        </Array>
                    </mxGeometry>
                </mxCell>
                <mxCell id="40" value="response.data&amp;nbsp; { [ {book1}, {book2} ] }" style="text;html=1;align=center;verticalAlign=middle;resizable=0;points=[];autosize=1;strokeColor=none;fillColor=none;" vertex="1" parent="1">
                    <mxGeometry x="190" y="920" width="220" height="30" as="geometry"/>
                </mxCell>
                <mxCell id="42" value="if user is valid then response book data" style="text;html=1;align=center;verticalAlign=middle;resizable=0;points=[];autosize=1;strokeColor=none;fillColor=none;" vertex="1" parent="1">
                    <mxGeometry x="610" y="870" width="230" height="30" as="geometry"/>
                </mxCell>
                <mxCell id="43" value="" style="endArrow=none;dashed=1;html=1;dashPattern=1 3;strokeWidth=2;" edge="1" parent="1">
                    <mxGeometry width="50" height="50" relative="1" as="geometry">
                        <mxPoint x="-160" y="790" as="sourcePoint"/>
                        <mxPoint x="920" y="790" as="targetPoint"/>
                    </mxGeometry>
                </mxCell>
                <mxCell id="44" value="check Authentication onwards" style="whiteSpace=wrap;html=1;" vertex="1" parent="1">
                    <mxGeometry x="175" y="800" width="120" height="60" as="geometry"/>
                </mxCell>
                <mxCell id="47" value="&lt;span style=&quot;color: rgb(0, 0, 0); text-wrap-mode: nowrap;&quot;&gt;request.user {&lt;/span&gt;&lt;br style=&quot;color: rgb(63, 63, 63); scrollbar-color: rgb(226, 226, 226) rgb(251, 251, 251); text-wrap-mode: nowrap;&quot;&gt;&lt;span style=&quot;color: rgb(0, 0, 0); text-wrap-mode: nowrap;&quot;&gt;userId: 4,&lt;/span&gt;&lt;div style=&quot;color: rgb(63, 63, 63); scrollbar-color: rgb(226, 226, 226) rgb(251, 251, 251); text-wrap-mode: nowrap;&quot;&gt;role: user&lt;/div&gt;&lt;div style=&quot;color: rgb(63, 63, 63); scrollbar-color: rgb(226, 226, 226) rgb(251, 251, 251); text-wrap-mode: nowrap;&quot;&gt;firstName: user3&lt;/div&gt;&lt;div style=&quot;color: rgb(63, 63, 63); scrollbar-color: rgb(226, 226, 226) rgb(251, 251, 251); text-wrap-mode: nowrap;&quot;&gt;}&lt;/div&gt;" style="rounded=1;whiteSpace=wrap;html=1;" vertex="1" parent="1">
                    <mxGeometry x="330" y="800" width="130" height="70" as="geometry"/>
                </mxCell>
                <mxCell id="48" value="" style="edgeStyle=elbowEdgeStyle;fontSize=12;html=1;endArrow=blockThin;endFill=1;" edge="1" parent="1">
                    <mxGeometry width="160" relative="1" as="geometry">
                        <mxPoint x="50" y="1040" as="sourcePoint"/>
                        <mxPoint x="589.5" y="1040" as="targetPoint"/>
                        <Array as="points">
                            <mxPoint x="210" y="1040"/>
                            <mxPoint x="590" y="1040"/>
                        </Array>
                    </mxGeometry>
                </mxCell>
                <mxCell id="49" value="POST /book/add" style="text;html=1;align=center;verticalAlign=middle;resizable=0;points=[];autosize=1;strokeColor=none;fillColor=none;" vertex="1" parent="1">
                    <mxGeometry x="-70" y="1025" width="110" height="30" as="geometry"/>
                </mxCell>
                <mxCell id="50" value="&lt;span style=&quot;color: rgb(0, 0, 0);&quot;&gt;request.headers { aurhorization: Bearer token }&lt;/span&gt;" style="text;html=1;align=center;verticalAlign=middle;resizable=0;points=[];autosize=1;strokeColor=none;fillColor=none;" vertex="1" parent="1">
                    <mxGeometry x="175" y="1010" width="270" height="30" as="geometry"/>
                </mxCell>
                <mxCell id="51" value="" style="edgeStyle=elbowEdgeStyle;fontSize=12;html=1;endArrow=blockThin;endFill=1;" edge="1" parent="1">
                    <mxGeometry width="160" relative="1" as="geometry">
                        <mxPoint x="589.5" y="1054" as="sourcePoint"/>
                        <mxPoint x="50" y="1054" as="targetPoint"/>
                        <Array as="points">
                            <mxPoint x="590" y="1054"/>
                            <mxPoint x="210" y="1054"/>
                        </Array>
                    </mxGeometry>
                </mxCell>
                <mxCell id="52" value="response.data&amp;nbsp; { &quot;adding a new book&quot;}" style="text;html=1;align=center;verticalAlign=middle;resizable=0;points=[];autosize=1;strokeColor=none;fillColor=none;" vertex="1" parent="1">
                    <mxGeometry x="185" y="1060" width="230" height="30" as="geometry"/>
                </mxCell>
                <mxCell id="53" value="check Authorization (role: admin) onwards" style="whiteSpace=wrap;html=1;" vertex="1" parent="1">
                    <mxGeometry x="-160" y="965" width="120" height="60" as="geometry"/>
                </mxCell>
                <mxCell id="54" value="" style="edgeStyle=elbowEdgeStyle;fontSize=12;html=1;endArrow=blockThin;endFill=1;" edge="1" parent="1">
                    <mxGeometry width="160" relative="1" as="geometry">
                        <mxPoint x="50" y="1140" as="sourcePoint"/>
                        <mxPoint x="589.5" y="1140" as="targetPoint"/>
                        <Array as="points">
                            <mxPoint x="210" y="1140"/>
                            <mxPoint x="590" y="1140"/>
                        </Array>
                    </mxGeometry>
                </mxCell>
                <mxCell id="55" value="UPDATE /book/update" style="text;html=1;align=center;verticalAlign=middle;resizable=0;points=[];autosize=1;strokeColor=none;fillColor=none;" vertex="1" parent="1">
                    <mxGeometry x="-85" y="1125" width="140" height="30" as="geometry"/>
                </mxCell>
                <mxCell id="56" value="&lt;span style=&quot;color: rgb(0, 0, 0);&quot;&gt;request.headers { aurhorization: Bearer token }&lt;/span&gt;" style="text;html=1;align=center;verticalAlign=middle;resizable=0;points=[];autosize=1;strokeColor=none;fillColor=none;" vertex="1" parent="1">
                    <mxGeometry x="175" y="1110" width="270" height="30" as="geometry"/>
                </mxCell>
                <mxCell id="57" value="" style="edgeStyle=elbowEdgeStyle;fontSize=12;html=1;endArrow=blockThin;endFill=1;" edge="1" parent="1">
                    <mxGeometry width="160" relative="1" as="geometry">
                        <mxPoint x="589.5" y="1154" as="sourcePoint"/>
                        <mxPoint x="50" y="1154" as="targetPoint"/>
                        <Array as="points">
                            <mxPoint x="590" y="1154"/>
                            <mxPoint x="210" y="1154"/>
                        </Array>
                    </mxGeometry>
                </mxCell>
                <mxCell id="58" value="response.data&amp;nbsp; { &quot;updating a book&quot;}" style="text;html=1;align=center;verticalAlign=middle;resizable=0;points=[];autosize=1;strokeColor=none;fillColor=none;" vertex="1" parent="1">
                    <mxGeometry x="195" y="1160" width="210" height="30" as="geometry"/>
                </mxCell>
                <mxCell id="59" value="" style="edgeStyle=elbowEdgeStyle;fontSize=12;html=1;endArrow=blockThin;endFill=1;" edge="1" parent="1">
                    <mxGeometry width="160" relative="1" as="geometry">
                        <mxPoint x="50" y="1240" as="sourcePoint"/>
                        <mxPoint x="589.5" y="1240" as="targetPoint"/>
                        <Array as="points">
                            <mxPoint x="210" y="1240"/>
                            <mxPoint x="590" y="1240"/>
                        </Array>
                    </mxGeometry>
                </mxCell>
                <mxCell id="60" value="DELETE /book/delete" style="text;html=1;align=center;verticalAlign=middle;resizable=0;points=[];autosize=1;strokeColor=none;fillColor=none;" vertex="1" parent="1">
                    <mxGeometry x="-85" y="1225" width="140" height="30" as="geometry"/>
                </mxCell>
                <mxCell id="61" value="&lt;span style=&quot;color: rgb(0, 0, 0);&quot;&gt;request.headers { aurhorization: Bearer token }&lt;/span&gt;" style="text;html=1;align=center;verticalAlign=middle;resizable=0;points=[];autosize=1;strokeColor=none;fillColor=none;" vertex="1" parent="1">
                    <mxGeometry x="175" y="1210" width="270" height="30" as="geometry"/>
                </mxCell>
                <mxCell id="62" value="" style="edgeStyle=elbowEdgeStyle;fontSize=12;html=1;endArrow=blockThin;endFill=1;" edge="1" parent="1">
                    <mxGeometry width="160" relative="1" as="geometry">
                        <mxPoint x="589.5" y="1254" as="sourcePoint"/>
                        <mxPoint x="50" y="1254" as="targetPoint"/>
                        <Array as="points">
                            <mxPoint x="590" y="1254"/>
                            <mxPoint x="210" y="1254"/>
                        </Array>
                    </mxGeometry>
                </mxCell>
                <mxCell id="63" value="response.data&amp;nbsp; { &quot;deleting a book&quot;}" style="text;html=1;align=center;verticalAlign=middle;resizable=0;points=[];autosize=1;strokeColor=none;fillColor=none;" vertex="1" parent="1">
                    <mxGeometry x="195" y="1260" width="210" height="30" as="geometry"/>
                </mxCell>
            </root>
        </mxGraphModel>
    </diagram>
</mxfile>